<svg width="1601.000000" height="927.000000" viewBox="0 0 1601 927" fill="none" xmlns="http://www.w3.org/2000/svg" xmlns:xlink="http://www.w3.org/1999/xlink">
	<desc>
			Created with Pixso.
	</desc>
	<defs>
		<linearGradient id="paint_linear_168_1349_0" x1="804.810303" y1="-457.493530" x2="-795.294312" y2="463.001831" gradientUnits="userSpaceOnUse">
			<stop stop-color="#68D585"/>
			<stop offset="0.394106" stop-color="#529320"/>
			<stop offset="1.000000" stop-color="#1C4D4B"/>
		</linearGradient>
		<linearGradient id="paint_linear_168_1350_0" x1="804.810303" y1="-457.493530" x2="-795.294312" y2="463.001831" gradientUnits="userSpaceOnUse">
			<stop stop-color="#7B11F9"/>
			<stop offset="0.394106" stop-color="#7922D8"/>
			<stop offset="1.000000" stop-color="#3636B2"/>
		</linearGradient>
	</defs>
	<rect id="BG" x="0.000122" width="1600.105591" height="926.000061" fill="url(#paint_linear_168_1349_0)" fill-opacity="1.000000"/>
	<rect id="BG" x="0.000122" width="1600.105591" height="926.000061" stroke="#979797" stroke-opacity="0" stroke-width="0.000000"/>
	<mask id="mask168_1350" mask-type="alpha" maskUnits="userSpaceOnUse" x="0.000122" y="0.000000" width="1600.105591" height="926.000061">
		<rect id="BG" x="0.000122" width="1600.105591" height="926.000061" fill="url(#paint_linear_168_1350_0)" fill-opacity="1.000000"/>
		<rect id="BG" x="0.000122" width="1600.105591" height="926.000061" stroke="#979797" stroke-opacity="0" stroke-width="0.000000"/>
	</mask>
	<g mask="url(#mask168_1350)">
		<path id="Fill 1" d="M1225.07 195.3C1225.87 195.3 1226.64 194.99 1227.19 194.45C1227.76 193.9 1228.07 193.15 1228.07 192.39C1228.07 191.62 1227.76 190.87 1227.19 190.32C1226.64 189.78 1225.87 189.47 1225.07 189.47C1224.29 189.47 1223.52 189.78 1222.96 190.32C1222.4 190.87 1222.07 191.62 1222.07 192.39C1222.07 193.15 1222.4 193.9 1222.96 194.45C1223.52 194.99 1224.29 195.3 1225.07 195.3Z" fill="#130D3A" fill-opacity="1.000000" fill-rule="evenodd"/>
		<path id="Fill 3" d="M1258.07 195.3L1258.09 195.3C1259.74 195.3 1261.07 193.99 1261.07 192.39C1261.07 190.78 1259.74 189.47 1258.09 189.47L1258.07 189.47C1256.42 189.47 1255.07 190.78 1255.07 192.39C1255.07 193.99 1256.42 195.3 1258.07 195.3Z" fill="#130D3A" fill-opacity="1.000000" fill-rule="evenodd"/>
		<path id="Fill 5" d="M1242.06 195.3L1242.09 195.3C1243.74 195.3 1245.07 193.99 1245.07 192.39C1245.07 190.78 1243.74 189.47 1242.09 189.47L1242.06 189.47C1240.42 189.47 1239.07 190.78 1239.07 192.39C1239.07 193.99 1240.42 195.3 1242.06 195.3Z" fill="#130D3A" fill-opacity="1.000000" fill-rule="evenodd"/>
		<path id="Fill 7" d="M1275.07 195.3C1275.87 195.3 1276.65 194.99 1277.21 194.45C1277.77 193.9 1278.07 193.15 1278.07 192.39C1278.07 191.62 1277.77 190.87 1277.21 190.32C1276.65 189.78 1275.87 189.47 1275.07 189.47C1274.29 189.47 1273.52 189.78 1272.96 190.32C1272.4 190.87 1272.07 191.62 1272.07 192.39C1272.07 193.15 1272.4 193.9 1272.96 194.45C1273.52 194.99 1274.29 195.3 1275.07 195.3Z" fill="#130D3A" fill-opacity="1.000000" fill-rule="evenodd"/>
		<path id="Fill 9" d="M1292.09 195.3C1292.88 195.3 1293.65 194.99 1294.21 194.45C1294.77 193.9 1295.09 193.15 1295.09 192.39C1295.09 191.62 1294.77 190.87 1294.21 190.32C1293.65 189.78 1292.88 189.47 1292.09 189.47C1291.3 189.47 1290.52 189.78 1289.96 190.32C1289.4 190.87 1289.09 191.62 1289.09 192.39C1289.09 193.15 1289.4 193.9 1289.96 194.45C1290.52 194.99 1291.3 195.3 1292.09 195.3Z" fill="#130D3A" fill-opacity="1.000000" fill-rule="evenodd"/>
		<path id="Fill 11" d="M1325.08 195.3L1325.1 195.3C1326.75 195.3 1328.09 193.99 1328.09 192.39C1328.09 190.78 1326.75 189.47 1325.1 189.47L1325.08 189.47C1323.43 189.47 1322.09 190.78 1322.09 192.39C1322.09 193.99 1323.43 195.3 1325.08 195.3Z" fill="#130D3A" fill-opacity="1.000000" fill-rule="evenodd"/>
		<path id="Fill 13" d="M1308.07 195.3L1308.09 195.3C1309.75 195.3 1311.09 193.99 1311.09 192.39C1311.09 190.78 1309.75 189.47 1308.09 189.47L1308.07 189.47C1306.43 189.47 1305.09 190.78 1305.09 192.39C1305.09 193.99 1306.43 195.3 1308.07 195.3Z" fill="#130D3A" fill-opacity="1.000000" fill-rule="evenodd"/>
		<mask id="mask168_1360" mask-type="alpha" maskUnits="userSpaceOnUse" x="1338.391357" y="189.269226" width="6.400085" height="6.218678">
			<path id="Clip 16" d="M1338.39 189.26L1344.79 189.26L1344.79 195.48L1338.39 195.48L1338.39 189.26Z" fill="#000000" fill-opacity="1.000000" fill-rule="evenodd"/>
		</mask>
		<g mask="url(#mask168_1360)">
			<path id="Fill 15" d="M1341.59 195.48C1342.43 195.48 1343.26 195.15 1343.85 194.57C1344.45 193.99 1344.79 193.19 1344.79 192.37C1344.79 191.55 1344.45 190.75 1343.85 190.18C1343.26 189.6 1342.43 189.26 1341.59 189.26C1340.75 189.26 1339.92 189.6 1339.33 190.18C1338.73 190.75 1338.39 191.55 1338.39 192.37C1338.39 193.19 1338.73 193.99 1339.33 194.57C1339.92 195.15 1340.75 195.48 1341.59 195.48Z" fill="#130D3A" fill-opacity="1.000000" fill-rule="evenodd"/>
		</g>
		<path id="Fill 18" d="M1225.07 182.67C1225.87 182.67 1226.64 182.36 1227.19 181.82C1227.76 181.27 1228.07 180.52 1228.07 179.75C1228.07 178.99 1227.76 178.24 1227.19 177.69C1226.64 177.15 1225.87 176.84 1225.07 176.84C1224.29 176.84 1223.52 177.15 1222.96 177.69C1222.4 178.24 1222.07 178.99 1222.07 179.75C1222.07 180.52 1222.4 181.27 1222.96 181.82C1223.52 182.36 1224.29 182.67 1225.07 182.67Z" fill="#130D3A" fill-opacity="1.000000" fill-rule="evenodd"/>
		<path id="Fill 20" d="M1258.07 182.67L1258.09 182.67C1259.74 182.67 1261.07 181.36 1261.07 179.75C1261.07 178.15 1259.74 176.84 1258.09 176.84L1258.07 176.84C1256.42 176.84 1255.07 178.15 1255.07 179.75C1255.07 181.36 1256.42 182.67 1258.07 182.67Z" fill="#130D3A" fill-opacity="1.000000" fill-rule="evenodd"/>
		<path id="Fill 22" d="M1242.06 182.67L1242.09 182.67C1243.74 182.67 1245.07 181.36 1245.07 179.75C1245.07 178.15 1243.74 176.84 1242.09 176.84L1242.06 176.84C1240.42 176.84 1239.07 178.15 1239.07 179.75C1239.07 181.36 1240.42 182.67 1242.06 182.67Z" fill="#130D3A" fill-opacity="1.000000" fill-rule="evenodd"/>
		<path id="Fill 24" d="M1275.07 182.67C1275.87 182.67 1276.65 182.36 1277.21 181.82C1277.77 181.27 1278.07 180.52 1278.07 179.75C1278.07 178.99 1277.77 178.24 1277.21 177.69C1276.65 177.15 1275.87 176.84 1275.07 176.84C1274.29 176.84 1273.52 177.15 1272.96 177.69C1272.4 178.24 1272.07 178.99 1272.07 179.75C1272.07 180.52 1272.4 181.27 1272.96 181.82C1273.52 182.36 1274.29 182.67 1275.07 182.67Z" fill="#130D3A" fill-opacity="1.000000" fill-rule="evenodd"/>
		<path id="Fill 26" d="M1292.09 182.67C1292.88 182.67 1293.65 182.36 1294.21 181.82C1294.77 181.27 1295.09 180.52 1295.09 179.75C1295.09 178.99 1294.77 178.24 1294.21 177.69C1293.65 177.15 1292.88 176.84 1292.09 176.84C1291.3 176.84 1290.52 177.15 1289.96 177.69C1289.4 178.24 1289.09 178.99 1289.09 179.75C1289.09 180.52 1289.4 181.27 1289.96 181.82C1290.52 182.36 1291.3 182.67 1292.09 182.67Z" fill="#130D3A" fill-opacity="1.000000" fill-rule="evenodd"/>
		<path id="Fill 28" d="M1325.08 182.67L1325.1 182.67C1326.75 182.67 1328.09 181.36 1328.09 179.75C1328.09 178.15 1326.75 176.84 1325.1 176.84L1325.08 176.84C1323.43 176.84 1322.09 178.15 1322.09 179.75C1322.09 181.36 1323.43 182.67 1325.08 182.67Z" fill="#130D3A" fill-opacity="1.000000" fill-rule="evenodd"/>
		<path id="Fill 30" d="M1308.07 182.67L1308.09 182.67C1309.75 182.67 1311.09 181.36 1311.09 179.75C1311.09 178.15 1309.75 176.84 1308.09 176.84L1308.07 176.84C1306.43 176.84 1305.09 178.15 1305.09 179.75C1305.09 181.36 1306.43 182.67 1308.07 182.67Z" fill="#130D3A" fill-opacity="1.000000" fill-rule="evenodd"/>
		<mask id="mask168_1370" mask-type="alpha" maskUnits="userSpaceOnUse" x="1338.391357" y="176.302658" width="6.400085" height="6.218678">
			<path id="Clip 33" d="M1338.39 176.3L1344.79 176.3L1344.79 182.52L1338.39 182.52L1338.39 176.3Z" fill="#000000" fill-opacity="1.000000" fill-rule="evenodd"/>
		</mask>
		<g mask="url(#mask168_1370)">
			<path id="Fill 32" d="M1341.59 182.52C1342.43 182.52 1343.26 182.19 1343.85 181.61C1344.45 181.03 1344.79 180.23 1344.79 179.41C1344.79 178.59 1344.45 177.79 1343.85 177.21C1343.26 176.63 1342.43 176.3 1341.59 176.3C1340.75 176.3 1339.92 176.63 1339.33 177.21C1338.73 177.79 1338.39 178.59 1338.39 179.41C1338.39 180.23 1338.73 181.03 1339.33 181.61C1339.92 182.19 1340.75 182.52 1341.59 182.52Z" fill="#130D3A" fill-opacity="1.000000" fill-rule="evenodd"/>
		</g>
		<path id="Fill 35" d="M1225.07 207.93C1225.87 207.93 1226.64 207.62 1227.19 207.08C1227.76 206.54 1228.07 205.79 1228.07 205.02C1228.07 204.25 1227.76 203.5 1227.19 202.96C1226.64 202.41 1225.87 202.1 1225.07 202.1C1224.29 202.1 1223.52 202.41 1222.96 202.96C1222.4 203.5 1222.07 204.25 1222.07 205.02C1222.07 205.79 1222.4 206.54 1222.96 207.08C1223.52 207.62 1224.29 207.93 1225.07 207.93Z" fill="#130D3A" fill-opacity="1.000000" fill-rule="evenodd"/>
		<path id="Fill 37" d="M1258.07 207.93L1258.09 207.93C1259.74 207.93 1261.07 206.63 1261.07 205.02C1261.07 203.41 1259.74 202.1 1258.09 202.1L1258.07 202.1C1256.42 202.1 1255.07 203.41 1255.07 205.02C1255.07 206.63 1256.42 207.93 1258.07 207.93Z" fill="#130D3A" fill-opacity="1.000000" fill-rule="evenodd"/>
		<path id="Fill 39" d="M1242.06 207.93L1242.09 207.93C1243.74 207.93 1245.07 206.63 1245.07 205.02C1245.07 203.41 1243.74 202.1 1242.09 202.1L1242.06 202.1C1240.42 202.1 1239.07 203.41 1239.07 205.02C1239.07 206.63 1240.42 207.93 1242.06 207.93Z" fill="#130D3A" fill-opacity="1.000000" fill-rule="evenodd"/>
		<path id="Fill 41" d="M1275.07 207.93C1275.87 207.93 1276.65 207.62 1277.21 207.08C1277.77 206.54 1278.07 205.79 1278.07 205.02C1278.07 204.25 1277.77 203.5 1277.21 202.96C1276.65 202.41 1275.87 202.1 1275.07 202.1C1274.29 202.1 1273.52 202.41 1272.96 202.96C1272.4 203.5 1272.07 204.25 1272.07 205.02C1272.07 205.79 1272.4 206.54 1272.96 207.08C1273.52 207.62 1274.29 207.93 1275.07 207.93Z" fill="#130D3A" fill-opacity="1.000000" fill-rule="evenodd"/>
		<path id="Fill 43" d="M1292.09 207.93C1292.88 207.93 1293.65 207.62 1294.21 207.08C1294.77 206.54 1295.09 205.79 1295.09 205.02C1295.09 204.25 1294.77 203.5 1294.21 202.96C1293.65 202.41 1292.88 202.1 1292.09 202.1C1291.3 202.1 1290.52 202.41 1289.96 202.96C1289.4 203.5 1289.09 204.25 1289.09 205.02C1289.09 205.79 1289.4 206.54 1289.96 207.08C1290.52 207.62 1291.3 207.93 1292.09 207.93Z" fill="#130D3A" fill-opacity="1.000000" fill-rule="evenodd"/>
		<path id="Fill 45" d="M1325.08 207.93L1325.1 207.93C1326.75 207.93 1328.09 206.63 1328.09 205.02C1328.09 203.41 1326.75 202.1 1325.1 202.1L1325.08 202.1C1323.43 202.1 1322.09 203.41 1322.09 205.02C1322.09 206.63 1323.43 207.93 1325.08 207.93Z" fill="#130D3A" fill-opacity="1.000000" fill-rule="evenodd"/>
		<path id="Fill 47" d="M1308.07 207.93L1308.09 207.93C1309.75 207.93 1311.09 206.63 1311.09 205.02C1311.09 203.41 1309.75 202.1 1308.09 202.1L1308.07 202.1C1306.43 202.1 1305.09 203.41 1305.09 205.02C1305.09 206.63 1306.43 207.93 1308.07 207.93Z" fill="#130D3A" fill-opacity="1.000000" fill-rule="evenodd"/>
		<mask id="mask168_1380" mask-type="alpha" maskUnits="userSpaceOnUse" x="1338.391357" y="202.235641" width="6.400085" height="6.218678">
			<path id="Clip 50" d="M1338.39 202.23L1344.79 202.23L1344.79 208.45L1338.39 208.45L1338.39 202.23Z" fill="#000000" fill-opacity="1.000000" fill-rule="evenodd"/>
		</mask>
		<g mask="url(#mask168_1380)">
			<path id="Fill 49" d="M1341.59 208.45C1342.43 208.45 1343.26 208.12 1343.85 207.54C1344.45 206.96 1344.79 206.16 1344.79 205.34C1344.79 204.52 1344.45 203.72 1343.85 203.14C1343.26 202.56 1342.43 202.23 1341.59 202.23C1340.75 202.23 1339.92 202.56 1339.33 203.14C1338.73 203.72 1338.39 204.52 1338.39 205.34C1338.39 206.16 1338.73 206.96 1339.33 207.54C1339.92 208.12 1340.75 208.45 1341.59 208.45Z" fill="#130D3A" fill-opacity="1.000000" fill-rule="evenodd"/>
		</g>
		<path id="Fill 52" d="M1225.07 220.56C1225.87 220.56 1226.64 220.25 1227.19 219.71C1227.76 219.17 1228.07 218.42 1228.07 217.65C1228.07 216.88 1227.76 216.13 1227.19 215.59C1226.64 215.04 1225.87 214.73 1225.07 214.73C1224.29 214.73 1223.52 215.04 1222.96 215.59C1222.4 216.13 1222.07 216.88 1222.07 217.65C1222.07 218.42 1222.4 219.17 1222.96 219.71C1223.52 220.25 1224.29 220.56 1225.07 220.56Z" fill="#130D3A" fill-opacity="1.000000" fill-rule="evenodd"/>
		<path id="Fill 54" d="M1258.07 220.56L1258.09 220.56C1259.74 220.56 1261.07 219.26 1261.07 217.65C1261.07 216.04 1259.74 214.73 1258.09 214.73L1258.07 214.73C1256.42 214.73 1255.07 216.04 1255.07 217.65C1255.07 219.26 1256.42 220.56 1258.07 220.56Z" fill="#130D3A" fill-opacity="1.000000" fill-rule="evenodd"/>
		<path id="Fill 56" d="M1242.06 220.56L1242.09 220.56C1243.74 220.56 1245.07 219.26 1245.07 217.65C1245.07 216.04 1243.74 214.73 1242.09 214.73L1242.06 214.73C1240.42 214.73 1239.07 216.04 1239.07 217.65C1239.07 219.26 1240.42 220.56 1242.06 220.56Z" fill="#130D3A" fill-opacity="1.000000" fill-rule="evenodd"/>
		<path id="Fill 58" d="M1275.07 220.56C1275.87 220.56 1276.65 220.25 1277.21 219.71C1277.77 219.17 1278.07 218.42 1278.07 217.65C1278.07 216.88 1277.77 216.13 1277.21 215.59C1276.65 215.04 1275.87 214.73 1275.07 214.73C1274.29 214.73 1273.52 215.04 1272.96 215.59C1272.4 216.13 1272.07 216.88 1272.07 217.65C1272.07 218.42 1272.4 219.17 1272.96 219.71C1273.52 220.25 1274.29 220.56 1275.07 220.56Z" fill="#130D3A" fill-opacity="1.000000" fill-rule="evenodd"/>
		<path id="Fill 60" d="M1292.09 220.56C1292.88 220.56 1293.65 220.25 1294.21 219.71C1294.77 219.17 1295.09 218.42 1295.09 217.65C1295.09 216.88 1294.77 216.13 1294.21 215.59C1293.65 215.04 1292.88 214.73 1292.09 214.73C1291.3 214.73 1290.52 215.04 1289.96 215.59C1289.4 216.13 1289.09 216.88 1289.09 217.65C1289.09 218.42 1289.4 219.17 1289.96 219.71C1290.52 220.25 1291.3 220.56 1292.09 220.56Z" fill="#130D3A" fill-opacity="1.000000" fill-rule="evenodd"/>
		<path id="Fill 62" d="M1325.08 220.56L1325.1 220.56C1326.75 220.56 1328.09 219.26 1328.09 217.65C1328.09 216.04 1326.75 214.73 1325.1 214.73L1325.08 214.73C1323.43 214.73 1322.09 216.04 1322.09 217.65C1322.09 219.26 1323.43 220.56 1325.08 220.56Z" fill="#130D3A" fill-opacity="1.000000" fill-rule="evenodd"/>
		<path id="Fill 64" d="M1308.07 220.56L1308.09 220.56C1309.75 220.56 1311.09 219.26 1311.09 217.65C1311.09 216.04 1309.75 214.73 1308.09 214.73L1308.07 214.73C1306.43 214.73 1305.09 216.04 1305.09 217.65C1305.09 219.26 1306.43 220.56 1308.07 220.56Z" fill="#130D3A" fill-opacity="1.000000" fill-rule="evenodd"/>
		<mask id="mask168_1390" mask-type="alpha" maskUnits="userSpaceOnUse" x="1338.391357" y="215.202042" width="6.400085" height="6.218678">
			<path id="Clip 67" d="M1338.39 215.2L1344.79 215.2L1344.79 221.42L1338.39 221.42L1338.39 215.2Z" fill="#000000" fill-opacity="1.000000" fill-rule="evenodd"/>
		</mask>
		<g mask="url(#mask168_1390)">
			<path id="Fill 66" d="M1341.59 221.42C1342.43 221.42 1343.26 221.09 1343.85 220.51C1344.45 219.93 1344.79 219.13 1344.79 218.31C1344.79 217.49 1344.45 216.69 1343.85 216.11C1343.26 215.53 1342.43 215.2 1341.59 215.2C1340.75 215.2 1339.92 215.53 1339.33 216.11C1338.73 216.69 1338.39 217.49 1338.39 218.31C1338.39 219.13 1338.73 219.93 1339.33 220.51C1339.92 221.09 1340.75 221.42 1341.59 221.42Z" fill="#130D3A" fill-opacity="1.000000" fill-rule="evenodd"/>
		</g>
		<path id="Fill 69" d="M1225.07 234.17C1225.87 234.17 1226.64 233.86 1227.19 233.31C1227.76 232.77 1228.07 232.02 1228.07 231.25C1228.07 230.49 1227.76 229.73 1227.19 229.19C1226.64 228.65 1225.87 228.34 1225.07 228.34C1224.29 228.34 1223.52 228.65 1222.96 229.19C1222.4 229.73 1222.07 230.49 1222.07 231.25C1222.07 232.02 1222.4 232.77 1222.96 233.31C1223.52 233.86 1224.29 234.17 1225.07 234.17Z" fill="#130D3A" fill-opacity="1.000000" fill-rule="evenodd"/>
		<path id="Fill 71" d="M1258.07 234.17L1258.09 234.17C1259.74 234.17 1261.07 232.86 1261.07 231.25C1261.07 229.64 1259.74 228.34 1258.09 228.34L1258.07 228.34C1256.42 228.34 1255.07 229.64 1255.07 231.25C1255.07 232.86 1256.42 234.17 1258.07 234.17Z" fill="#130D3A" fill-opacity="1.000000" fill-rule="evenodd"/>
		<path id="Fill 73" d="M1242.06 234.17L1242.09 234.17C1243.74 234.17 1245.07 232.86 1245.07 231.25C1245.07 229.64 1243.74 228.34 1242.09 228.34L1242.06 228.34C1240.42 228.34 1239.07 229.64 1239.07 231.25C1239.07 232.86 1240.42 234.17 1242.06 234.17Z" fill="#130D3A" fill-opacity="1.000000" fill-rule="evenodd"/>
		<path id="Fill 75" d="M1275.07 234.17C1275.87 234.17 1276.65 233.86 1277.21 233.31C1277.77 232.77 1278.07 232.02 1278.07 231.25C1278.07 230.49 1277.77 229.73 1277.21 229.19C1276.65 228.65 1275.87 228.34 1275.07 228.34C1274.29 228.34 1273.52 228.65 1272.96 229.19C1272.4 229.73 1272.07 230.49 1272.07 231.25C1272.07 232.02 1272.4 232.77 1272.96 233.31C1273.52 233.86 1274.29 234.17 1275.07 234.17Z" fill="#130D3A" fill-opacity="1.000000" fill-rule="evenodd"/>
		<path id="Fill 77" d="M1292.09 234.17C1292.88 234.17 1293.65 233.86 1294.21 233.31C1294.77 232.77 1295.09 232.02 1295.09 231.25C1295.09 230.49 1294.77 229.73 1294.21 229.19C1293.65 228.65 1292.88 228.34 1292.09 228.34C1291.3 228.34 1290.52 228.65 1289.96 229.19C1289.4 229.73 1289.09 230.49 1289.09 231.25C1289.09 232.02 1289.4 232.77 1289.96 233.31C1290.52 233.86 1291.3 234.17 1292.09 234.17Z" fill="#130D3A" fill-opacity="1.000000" fill-rule="evenodd"/>
		<path id="Fill 79" d="M1325.08 234.17L1325.1 234.17C1326.75 234.17 1328.09 232.86 1328.09 231.25C1328.09 229.64 1326.75 228.34 1325.1 228.34L1325.08 228.34C1323.43 228.34 1322.09 229.64 1322.09 231.25C1322.09 232.86 1323.43 234.17 1325.08 234.17Z" fill="#130D3A" fill-opacity="1.000000" fill-rule="evenodd"/>
		<path id="Fill 81" d="M1308.07 234.17L1308.09 234.17C1309.75 234.17 1311.09 232.86 1311.09 231.25C1311.09 229.64 1309.75 228.34 1308.09 228.34L1308.07 228.34C1306.43 228.34 1305.09 229.64 1305.09 231.25C1305.09 232.86 1306.43 234.17 1308.07 234.17Z" fill="#130D3A" fill-opacity="1.000000" fill-rule="evenodd"/>
		<mask id="mask168_1400" mask-type="alpha" maskUnits="userSpaceOnUse" x="1338.391357" y="227.585602" width="6.400085" height="6.218678">
			<path id="Clip 84" d="M1338.39 227.58L1344.79 227.58L1344.79 233.8L1338.39 233.8L1338.39 227.58Z" fill="#000000" fill-opacity="1.000000" fill-rule="evenodd"/>
		</mask>
		<g mask="url(#mask168_1400)">
			<path id="Fill 83" d="M1341.59 233.8C1342.43 233.8 1343.26 233.47 1343.85 232.89C1344.45 232.31 1344.79 231.51 1344.79 230.69C1344.79 229.87 1344.45 229.07 1343.85 228.49C1343.26 227.91 1342.43 227.58 1341.59 227.58C1340.75 227.58 1339.92 227.91 1339.33 228.49C1338.73 229.07 1338.39 229.87 1338.39 230.69C1338.39 231.51 1338.73 232.31 1339.33 232.89C1339.92 233.47 1340.75 233.8 1341.59 233.8Z" fill="#130D3A" fill-opacity="1.000000" fill-rule="evenodd"/>
		</g>
		<path id="Fill 86" d="M1225.07 246.8C1225.87 246.8 1226.64 246.49 1227.19 245.95C1227.76 245.4 1228.07 244.65 1228.07 243.88C1228.07 243.12 1227.76 242.37 1227.19 241.82C1226.64 241.28 1225.87 240.97 1225.07 240.97C1224.29 240.97 1223.52 241.28 1222.96 241.82C1222.4 242.37 1222.07 243.12 1222.07 243.88C1222.07 244.65 1222.4 245.4 1222.96 245.95C1223.52 246.49 1224.29 246.8 1225.07 246.8Z" fill="#130D3A" fill-opacity="1.000000" fill-rule="evenodd"/>
		<path id="Fill 88" d="M1258.07 246.8L1258.09 246.8C1259.74 246.8 1261.07 245.49 1261.07 243.88C1261.07 242.28 1259.74 240.97 1258.09 240.97L1258.07 240.97C1256.42 240.97 1255.07 242.28 1255.07 243.88C1255.07 245.49 1256.42 246.8 1258.07 246.8Z" fill="#130D3A" fill-opacity="1.000000" fill-rule="evenodd"/>
		<path id="Fill 90" d="M1242.06 246.8L1242.09 246.8C1243.74 246.8 1245.07 245.49 1245.07 243.88C1245.07 242.28 1243.74 240.97 1242.09 240.97L1242.06 240.97C1240.42 240.97 1239.07 242.28 1239.07 243.88C1239.07 245.49 1240.42 246.8 1242.06 246.8Z" fill="#130D3A" fill-opacity="1.000000" fill-rule="evenodd"/>
		<path id="Fill 92" d="M1275.07 246.8C1275.87 246.8 1276.65 246.49 1277.21 245.95C1277.77 245.4 1278.07 244.65 1278.07 243.88C1278.07 243.12 1277.77 242.37 1277.21 241.82C1276.65 241.28 1275.87 240.97 1275.07 240.97C1274.29 240.97 1273.52 241.28 1272.96 241.82C1272.4 242.37 1272.07 243.12 1272.07 243.88C1272.07 244.65 1272.4 245.4 1272.96 245.95C1273.52 246.49 1274.29 246.8 1275.07 246.8Z" fill="#130D3A" fill-opacity="1.000000" fill-rule="evenodd"/>
		<path id="Fill 94" d="M1292.09 246.8C1292.88 246.8 1293.65 246.49 1294.21 245.95C1294.77 245.4 1295.09 244.65 1295.09 243.88C1295.09 243.12 1294.77 242.37 1294.21 241.82C1293.65 241.28 1292.88 240.97 1292.09 240.97C1291.3 240.97 1290.52 241.28 1289.96 241.82C1289.4 242.37 1289.09 243.12 1289.09 243.88C1289.09 244.65 1289.4 245.4 1289.96 245.95C1290.52 246.49 1291.3 246.8 1292.09 246.8Z" fill="#130D3A" fill-opacity="1.000000" fill-rule="evenodd"/>
		<path id="Fill 96" d="M1325.08 246.8L1325.1 246.8C1326.75 246.8 1328.09 245.49 1328.09 243.88C1328.09 242.28 1326.75 240.97 1325.1 240.97L1325.08 240.97C1323.43 240.97 1322.09 242.28 1322.09 243.88C1322.09 245.49 1323.43 246.8 1325.08 246.8Z" fill="#130D3A" fill-opacity="1.000000" fill-rule="evenodd"/>
		<path id="Fill 98" d="M1308.07 246.8L1308.09 246.8C1309.75 246.8 1311.09 245.49 1311.09 243.88C1311.09 242.28 1309.75 240.97 1308.09 240.97L1308.07 240.97C1306.43 240.97 1305.09 242.28 1305.09 243.88C1305.09 245.49 1306.43 246.8 1308.07 246.8Z" fill="#130D3A" fill-opacity="1.000000" fill-rule="evenodd"/>
		<mask id="mask168_1410" mask-type="alpha" maskUnits="userSpaceOnUse" x="1338.391357" y="240.552002" width="6.400085" height="6.218678">
			<path id="Clip 101" d="M1338.39 240.55L1344.79 240.55L1344.79 246.77L1338.39 246.77L1338.39 240.55Z" fill="#000000" fill-opacity="1.000000" fill-rule="evenodd"/>
		</mask>
		<g mask="url(#mask168_1410)">
			<path id="Fill 100" d="M1341.59 246.77C1342.43 246.77 1343.26 246.44 1343.85 245.86C1344.45 245.28 1344.79 244.48 1344.79 243.66C1344.79 242.84 1344.45 242.04 1343.85 241.46C1343.26 240.88 1342.43 240.55 1341.59 240.55C1340.75 240.55 1339.92 240.88 1339.33 241.46C1338.73 242.04 1338.39 242.84 1338.39 243.66C1338.39 244.48 1338.73 245.28 1339.33 245.86C1339.92 246.44 1340.75 246.77 1341.59 246.77Z" fill="#130D3A" fill-opacity="1.000000" fill-rule="evenodd"/>
		</g>
		<path id="Fill 103" d="M1225.07 259.43C1225.87 259.43 1226.64 259.12 1227.19 258.58C1227.76 258.03 1228.07 257.28 1228.07 256.51C1228.07 255.75 1227.76 255 1227.19 254.46C1226.64 253.91 1225.87 253.6 1225.07 253.6C1224.29 253.6 1223.52 253.91 1222.96 254.46C1222.4 255 1222.07 255.75 1222.07 256.51C1222.07 257.28 1222.4 258.03 1222.96 258.58C1223.52 259.12 1224.29 259.43 1225.07 259.43Z" fill="#130D3A" fill-opacity="1.000000" fill-rule="evenodd"/>
		<path id="Fill 105" d="M1258.07 259.43L1258.09 259.43C1259.74 259.43 1261.07 258.13 1261.07 256.51C1261.07 254.91 1259.74 253.6 1258.09 253.6L1258.07 253.6C1256.42 253.6 1255.07 254.91 1255.07 256.51C1255.07 258.13 1256.42 259.43 1258.07 259.43Z" fill="#130D3A" fill-opacity="1.000000" fill-rule="evenodd"/>
		<path id="Fill 107" d="M1242.06 259.43L1242.09 259.43C1243.74 259.43 1245.07 258.13 1245.07 256.51C1245.07 254.91 1243.74 253.6 1242.09 253.6L1242.06 253.6C1240.42 253.6 1239.07 254.91 1239.07 256.51C1239.07 258.13 1240.42 259.43 1242.06 259.43Z" fill="#130D3A" fill-opacity="1.000000" fill-rule="evenodd"/>
		<path id="Fill 109" d="M1275.07 259.43C1275.87 259.43 1276.65 259.12 1277.21 258.58C1277.77 258.03 1278.07 257.28 1278.07 256.51C1278.07 255.75 1277.77 255 1277.21 254.46C1276.65 253.91 1275.87 253.6 1275.07 253.6C1274.29 253.6 1273.52 253.91 1272.96 254.46C1272.4 255 1272.07 255.75 1272.07 256.51C1272.07 257.28 1272.4 258.03 1272.96 258.58C1273.52 259.12 1274.29 259.43 1275.07 259.43Z" fill="#130D3A" fill-opacity="1.000000" fill-rule="evenodd"/>
		<path id="Fill 111" d="M1292.09 259.43C1292.88 259.43 1293.65 259.12 1294.21 258.58C1294.77 258.03 1295.09 257.28 1295.09 256.51C1295.09 255.75 1294.77 255 1294.21 254.46C1293.65 253.91 1292.88 253.6 1292.09 253.6C1291.3 253.6 1290.52 253.91 1289.96 254.46C1289.4 255 1289.09 255.75 1289.09 256.51C1289.09 257.28 1289.4 258.03 1289.96 258.58C1290.52 259.12 1291.3 259.43 1292.09 259.43Z" fill="#130D3A" fill-opacity="1.000000" fill-rule="evenodd"/>
		<path id="Fill 113" d="M1325.08 259.43L1325.1 259.43C1326.75 259.43 1328.09 258.13 1328.09 256.51C1328.09 254.91 1326.75 253.6 1325.1 253.6L1325.08 253.6C1323.43 253.6 1322.09 254.91 1322.09 256.51C1322.09 258.13 1323.43 259.43 1325.08 259.43Z" fill="#130D3A" fill-opacity="1.000000" fill-rule="evenodd"/>
		<path id="Fill 115" d="M1308.07 259.43L1308.09 259.43C1309.75 259.43 1311.09 258.13 1311.09 256.51C1311.09 254.91 1309.75 253.6 1308.09 253.6L1308.07 253.6C1306.43 253.6 1305.09 254.91 1305.09 256.51C1305.09 258.13 1306.43 259.43 1308.07 259.43Z" fill="#130D3A" fill-opacity="1.000000" fill-rule="evenodd"/>
		<mask id="mask168_1420" mask-type="alpha" maskUnits="userSpaceOnUse" x="1338.391357" y="253.518433" width="6.400085" height="6.218678">
			<path id="Clip 118" d="M1338.39 253.51L1344.79 253.51L1344.79 259.73L1338.39 259.73L1338.39 253.51Z" fill="#000000" fill-opacity="1.000000" fill-rule="evenodd"/>
		</mask>
		<g mask="url(#mask168_1420)">
			<path id="Fill 117" d="M1341.59 259.73C1342.43 259.73 1343.26 259.4 1343.85 258.82C1344.45 258.24 1344.79 257.44 1344.79 256.62C1344.79 255.81 1344.45 255 1343.85 254.42C1343.26 253.85 1342.43 253.51 1341.59 253.51C1340.75 253.51 1339.92 253.85 1339.33 254.42C1338.73 255 1338.39 255.81 1338.39 256.62C1338.39 257.44 1338.73 258.24 1339.33 258.82C1339.92 259.4 1340.75 259.73 1341.59 259.73Z" fill="#130D3A" fill-opacity="1.000000" fill-rule="evenodd"/>
		</g>
		<path id="Fill 120" d="M1225.07 272.06C1225.87 272.06 1226.64 271.75 1227.19 271.21C1227.76 270.67 1228.07 269.92 1228.07 269.15C1228.07 268.38 1227.76 267.63 1227.19 267.09C1226.64 266.54 1225.87 266.23 1225.07 266.23C1224.29 266.23 1223.52 266.54 1222.96 267.09C1222.4 267.63 1222.07 268.38 1222.07 269.15C1222.07 269.92 1222.4 270.67 1222.96 271.21C1223.52 271.75 1224.29 272.06 1225.07 272.06Z" fill="#130D3A" fill-opacity="1.000000" fill-rule="evenodd"/>
		<path id="Fill 122" d="M1258.07 272.06L1258.09 272.06C1259.74 272.06 1261.07 270.76 1261.07 269.15C1261.07 267.54 1259.74 266.23 1258.09 266.23L1258.07 266.23C1256.42 266.23 1255.07 267.54 1255.07 269.15C1255.07 270.76 1256.42 272.06 1258.07 272.06Z" fill="#130D3A" fill-opacity="1.000000" fill-rule="evenodd"/>
		<path id="Fill 124" d="M1242.06 272.06L1242.09 272.06C1243.74 272.06 1245.07 270.76 1245.07 269.15C1245.07 267.54 1243.74 266.23 1242.09 266.23L1242.06 266.23C1240.42 266.23 1239.07 267.54 1239.07 269.15C1239.07 270.76 1240.42 272.06 1242.06 272.06Z" fill="#130D3A" fill-opacity="1.000000" fill-rule="evenodd"/>
		<path id="Fill 126" d="M1275.07 272.06C1275.87 272.06 1276.65 271.75 1277.21 271.21C1277.77 270.67 1278.07 269.92 1278.07 269.15C1278.07 268.38 1277.77 267.63 1277.21 267.09C1276.65 266.54 1275.87 266.23 1275.07 266.23C1274.29 266.23 1273.52 266.54 1272.96 267.09C1272.4 267.63 1272.07 268.38 1272.07 269.15C1272.07 269.92 1272.4 270.67 1272.96 271.21C1273.52 271.75 1274.29 272.06 1275.07 272.06Z" fill="#130D3A" fill-opacity="1.000000" fill-rule="evenodd"/>
		<path id="Fill 128" d="M1292.09 272.06C1292.88 272.06 1293.65 271.75 1294.21 271.21C1294.77 270.67 1295.09 269.92 1295.09 269.15C1295.09 268.38 1294.77 267.63 1294.21 267.09C1293.65 266.54 1292.88 266.23 1292.09 266.23C1291.3 266.23 1290.52 266.54 1289.96 267.09C1289.4 267.63 1289.09 268.38 1289.09 269.15C1289.09 269.92 1289.4 270.67 1289.96 271.21C1290.52 271.75 1291.3 272.06 1292.09 272.06Z" fill="#130D3A" fill-opacity="1.000000" fill-rule="evenodd"/>
		<path id="Fill 130" d="M1325.08 272.06L1325.1 272.06C1326.75 272.06 1328.09 270.76 1328.09 269.15C1328.09 267.54 1326.75 266.23 1325.1 266.23L1325.08 266.23C1323.43 266.23 1322.09 267.54 1322.09 269.15C1322.09 270.76 1323.43 272.06 1325.08 272.06Z" fill="#130D3A" fill-opacity="1.000000" fill-rule="evenodd"/>
		<path id="Fill 132" d="M1308.07 272.06L1308.09 272.06C1309.75 272.06 1311.09 270.76 1311.09 269.15C1311.09 267.54 1309.75 266.23 1308.09 266.23L1308.07 266.23C1306.43 266.23 1305.09 267.54 1305.09 269.15C1305.09 270.76 1306.43 272.06 1308.07 272.06Z" fill="#130D3A" fill-opacity="1.000000" fill-rule="evenodd"/>
		<mask id="mask168_1430" mask-type="alpha" maskUnits="userSpaceOnUse" x="1338.391357" y="266.485016" width="6.400085" height="6.218678">
			<path id="Clip 135" d="M1338.39 266.48L1344.79 266.48L1344.79 272.7L1338.39 272.7L1338.39 266.48Z" fill="#000000" fill-opacity="1.000000" fill-rule="evenodd"/>
		</mask>
		<g mask="url(#mask168_1430)">
			<path id="Fill 134" d="M1341.59 272.7C1342.43 272.7 1343.26 272.37 1343.85 271.79C1344.45 271.21 1344.79 270.41 1344.79 269.59C1344.79 268.77 1344.45 267.97 1343.85 267.39C1343.26 266.81 1342.43 266.48 1341.59 266.48C1340.75 266.48 1339.92 266.81 1339.33 267.39C1338.73 267.97 1338.39 268.77 1338.39 269.59C1338.39 270.41 1338.73 271.21 1339.33 271.79C1339.92 272.37 1340.75 272.7 1341.59 272.7Z" fill="#130D3A" fill-opacity="1.000000" fill-rule="evenodd"/>
		</g>
		<mask id="mask168_1433" mask-type="alpha" maskUnits="userSpaceOnUse" x="1222.081177" y="278.869141" width="6.000366" height="5.829720">
			<path id="Clip 138" d="M1222.07 278.86L1228.07 278.86L1228.07 284.69L1222.07 284.69L1222.07 278.86Z" fill="#000000" fill-opacity="1.000000" fill-rule="evenodd"/>
		</mask>
		<g mask="url(#mask168_1433)">
			<path id="Fill 137" d="M1225.07 284.69C1225.87 284.69 1226.64 284.38 1227.19 283.84C1227.76 283.3 1228.07 282.55 1228.07 281.78C1228.07 281.01 1227.76 280.26 1227.19 279.72C1226.64 279.18 1225.87 278.86 1225.07 278.86C1224.29 278.86 1223.52 279.18 1222.96 279.72C1222.4 280.26 1222.07 281.01 1222.07 281.78C1222.07 282.55 1222.4 283.3 1222.96 283.84C1223.52 284.38 1224.29 284.69 1225.07 284.69Z" fill="#130D3A" fill-opacity="1.000000" fill-rule="evenodd"/>
		</g>
		<mask id="mask168_1436" mask-type="alpha" maskUnits="userSpaceOnUse" x="1255.075562" y="278.869141" width="6.416443" height="5.829720">
			<path id="Clip 141" d="M1255.07 278.86L1261.49 278.86L1261.49 284.69L1255.07 284.69L1255.07 278.86Z" fill="#000000" fill-opacity="1.000000" fill-rule="evenodd"/>
		</mask>
		<g mask="url(#mask168_1436)">
			<path id="Fill 140" d="M1258.28 284.69L1258.29 284.69C1260.06 284.69 1261.49 283.39 1261.49 281.78C1261.49 280.17 1260.06 278.86 1258.29 278.86L1258.28 278.86C1256.51 278.86 1255.07 280.17 1255.07 281.78C1255.07 283.39 1256.51 284.69 1258.28 284.69Z" fill="#130D3A" fill-opacity="1.000000" fill-rule="evenodd"/>
		</g>
		<mask id="mask168_1439" mask-type="alpha" maskUnits="userSpaceOnUse" x="1238.574463" y="278.869141" width="6.416443" height="5.829720">
			<path id="Clip 144" d="M1238.56 278.86L1244.99 278.86L1244.99 284.69L1238.56 284.69L1238.56 278.86Z" fill="#000000" fill-opacity="1.000000" fill-rule="evenodd"/>
		</mask>
		<g mask="url(#mask168_1439)">
			<path id="Fill 143" d="M1241.77 284.69L1241.79 284.69C1243.56 284.69 1244.99 283.39 1244.99 281.78C1244.99 280.17 1243.56 278.86 1241.79 278.86L1241.77 278.86C1240.01 278.86 1238.56 280.17 1238.56 281.78C1238.56 283.39 1240.01 284.69 1241.77 284.69Z" fill="#130D3A" fill-opacity="1.000000" fill-rule="evenodd"/>
		</g>
		<mask id="mask168_1442" mask-type="alpha" maskUnits="userSpaceOnUse" x="1271.585327" y="278.869141" width="6.400452" height="5.829720">
			<path id="Clip 147" d="M1271.59 278.86L1277.99 278.86L1277.99 284.69L1271.59 284.69L1271.59 278.86Z" fill="#000000" fill-opacity="1.000000" fill-rule="evenodd"/>
		</mask>
		<g mask="url(#mask168_1442)">
			<path id="Fill 146" d="M1274.79 284.69C1275.63 284.69 1276.44 284.38 1277.05 283.84C1277.64 283.3 1277.99 282.55 1277.99 281.78C1277.99 281.01 1277.64 280.26 1277.05 279.72C1276.44 279.18 1275.63 278.86 1274.79 278.86C1273.93 278.86 1273.12 279.18 1272.52 279.72C1271.93 280.26 1271.59 281.01 1271.59 281.78C1271.59 282.55 1271.93 283.3 1272.52 283.84C1273.12 284.38 1273.93 284.69 1274.79 284.69Z" fill="#130D3A" fill-opacity="1.000000" fill-rule="evenodd"/>
		</g>
		<mask id="mask168_1445" mask-type="alpha" maskUnits="userSpaceOnUse" x="1288.486450" y="278.869141" width="6.400452" height="5.829720">
			<path id="Clip 150" d="M1288.49 278.86L1294.89 278.86L1294.89 284.69L1288.49 284.69L1288.49 278.86Z" fill="#000000" fill-opacity="1.000000" fill-rule="evenodd"/>
		</mask>
		<g mask="url(#mask168_1445)">
			<path id="Fill 149" d="M1291.68 284.69C1292.53 284.69 1293.35 284.38 1293.94 283.84C1294.55 283.3 1294.89 282.55 1294.89 281.78C1294.89 281.01 1294.55 280.26 1293.94 279.72C1293.35 279.18 1292.53 278.86 1291.68 278.86C1290.84 278.86 1290.02 279.18 1289.42 279.72C1288.82 280.26 1288.49 281.01 1288.49 281.78C1288.49 282.55 1288.82 283.3 1289.42 283.84C1290.02 284.38 1290.84 284.69 1291.68 284.69Z" fill="#130D3A" fill-opacity="1.000000" fill-rule="evenodd"/>
		</g>
		<mask id="mask168_1448" mask-type="alpha" maskUnits="userSpaceOnUse" x="1321.481567" y="278.869141" width="6.416443" height="5.829720">
			<path id="Clip 153" d="M1321.48 278.86L1327.9 278.86L1327.9 284.69L1321.48 284.69L1321.48 278.86Z" fill="#000000" fill-opacity="1.000000" fill-rule="evenodd"/>
		</mask>
		<g mask="url(#mask168_1448)">
			<path id="Fill 152" d="M1324.68 284.69L1324.7 284.69C1326.47 284.69 1327.9 283.39 1327.9 281.78C1327.9 280.17 1326.47 278.86 1324.7 278.86L1324.68 278.86C1322.92 278.86 1321.48 280.17 1321.48 281.78C1321.48 283.39 1322.92 284.69 1324.68 284.69Z" fill="#130D3A" fill-opacity="1.000000" fill-rule="evenodd"/>
		</g>
		<mask id="mask168_1451" mask-type="alpha" maskUnits="userSpaceOnUse" x="1304.980469" y="278.869141" width="6.416443" height="5.829720">
			<path id="Clip 156" d="M1304.98 278.86L1311.4 278.86L1311.4 284.69L1304.98 284.69L1304.98 278.86Z" fill="#000000" fill-opacity="1.000000" fill-rule="evenodd"/>
		</mask>
		<g mask="url(#mask168_1451)">
			<path id="Fill 155" d="M1308.18 284.69L1308.19 284.69C1309.96 284.69 1311.4 283.39 1311.4 281.78C1311.4 280.17 1309.96 278.86 1308.19 278.86L1308.18 278.86C1306.41 278.86 1304.98 280.17 1304.98 281.78C1304.98 283.39 1306.41 284.69 1308.18 284.69Z" fill="#130D3A" fill-opacity="1.000000" fill-rule="evenodd"/>
		</g>
		<mask id="mask168_1454" mask-type="alpha" maskUnits="userSpaceOnUse" x="1338.391357" y="278.869141" width="6.400085" height="5.829720">
			<path id="Clip 159" d="M1338.39 278.86L1344.79 278.86L1344.79 284.69L1338.39 284.69L1338.39 278.86Z" fill="#000000" fill-opacity="1.000000" fill-rule="evenodd"/>
		</mask>
		<g mask="url(#mask168_1454)">
			<path id="Fill 158" d="M1341.59 284.69C1342.43 284.69 1343.26 284.38 1343.85 283.84C1344.45 283.3 1344.79 282.55 1344.79 281.78C1344.79 281.01 1344.45 280.26 1343.85 279.72C1343.26 279.18 1342.43 278.86 1341.59 278.86C1340.75 278.86 1339.92 279.18 1339.33 279.72C1338.73 280.26 1338.39 281.01 1338.39 281.78C1338.39 282.55 1338.73 283.3 1339.33 283.84C1339.92 284.38 1340.75 284.69 1341.59 284.69Z" fill="#130D3A" fill-opacity="1.000000" fill-rule="evenodd"/>
		</g>
	</g>
	<g mask="url(#mask168_1350)">
		<g opacity="0.036110">
			<ellipse id="Oval" cx="-304.519958" cy="-153.037781" rx="575.538025" ry="559.195251" fill="#FFFFFF" fill-opacity="1.000000"/>
			<ellipse id="Oval" cx="-304.519958" cy="-153.037781" rx="575.538025" ry="559.195251" stroke="#979797" stroke-opacity="0" stroke-width="0.000000"/>
		</g>
	</g>
	<g mask="url(#mask168_1350)">
		<g opacity="0.045829">
			<ellipse id="Oval Copy" cx="-314.520752" cy="-172.471130" rx="822.554321" ry="798.711487" fill="#FFFFFF" fill-opacity="1.000000"/>
			<ellipse id="Oval Copy" cx="-314.520752" cy="-172.471130" rx="822.554321" ry="798.711487" stroke="#979797" stroke-opacity="0" stroke-width="0.000000"/>
		</g>
	</g>
	<g mask="url(#mask168_1350)">
		<g opacity="0.050665">
			<ellipse id="Oval Copy 2" cx="-345.522705" cy="-191.418701" rx="1121.573975" ry="1089.240479" fill="#FFFFFF" fill-opacity="1.000000"/>
			<ellipse id="Oval Copy 2" cx="-345.522705" cy="-191.418701" rx="1121.573975" ry="1089.240479" stroke="#979797" stroke-opacity="0" stroke-width="0.000000"/>
		</g>
	</g>
	<path id="Wave" d="M0 790.65C0 790.65 226.38 902.71 381.05 893.64C535.71 884.57 628.36 847.2 798.3 865.89C968.25 884.57 1461.17 837.42 1600 707.65L1600 926L0 926L0 790.65Z" fill="#EFF4EF" fill-opacity="1.000000" fill-rule="evenodd"/>
	<path id="Wave" d="M381.05 893.64C535.71 884.57 628.36 847.2 798.3 865.89C968.25 884.57 1461.17 837.42 1600 707.65L1600 926L0 926L0 790.65C0 790.65 226.38 902.71 381.05 893.64Z" stroke="#979797" stroke-opacity="0" stroke-width="0.000000"/>
</svg>
